<svg version="1.1" id="ios7_x5F_arrows_1_" xmlns="http://www.w3.org/2000/svg" x="0" y="0" viewBox="0 0 128 128" style="enable-background:new 0 0 128 128" xml:space="preserve"><style>.st0{display:none}.st1{display:inline}</style><g id="_x33_5_1_"><path d="M122 24 99.6 0 77.3 24l5.1 5.3 14.2-16.1v29.2c0 13.7-16 22.7-33 32.4-17.1-9.8-33-18.5-33-32.5V13.5l13.8 15.8 5-5.3L27.3 0 5.1 24 9 29.7l15-16.3v28.9c0 17 16.9 27.1 35 37.5.6.3 1.2.7 1.9 1.1V128h6.6V79.7c.8-.4 1.6-.9 2.3-1.3 17.2-9.8 33.5-19.8 33.5-35.9V13.7l14.7 16 4-5.7z" id="icon_7_"/></g></svg>